<svg xmlns="http://www.w3.org/2000/svg" xmlns:xlink="http://www.w3.org/1999/xlink" viewBox="0,0,256,256" width="128px" height="128px"><defs><linearGradient x1="32" y1="7.687" x2="32" y2="36.916" gradientUnits="userSpaceOnUse" id="color-1"><stop offset="0" stop-color="#6dc7ff"></stop><stop offset="1" stop-color="#e6abff"></stop></linearGradient><linearGradient x1="32" y1="4.5" x2="32" y2="60.476" gradientUnits="userSpaceOnUse" id="color-2"><stop offset="0" stop-color="#1a6dff"></stop><stop offset="1" stop-color="#c822ff"></stop></linearGradient></defs><g fill="none" fill-rule="nonzero" stroke="none" stroke-width="1" stroke-linecap="butt" stroke-linejoin="miter" stroke-miterlimit="10" stroke-dasharray="" stroke-dashoffset="0" font-family="none" font-weight="none" font-size="none" text-anchor="none" style="mix-blend-mode: normal"><g transform="scale(4,4)"><path d="M55,28v-8.491c0,-2.119 -1.29,-4.026 -3.257,-4.814l-19.743,-7.915l-19.983,8.011c-1.823,0.73 -3.017,2.496 -3.017,4.458v8.751l4,1.65v-6.36l3,1.36v10.36l3,1.37v-7.09l3,1.36v3.09l3,1.36v-4.81l3,1.36v2.81l4,1.822l4,-1.822v-2.81l3,-1.36v4.81l3,-1.36v-3.09l3,-1.36v7.09l3,-1.37v-10.36l3,-1.36v6.36z" fill="url(#color-1)"></path><path d="M52.995,14.629l-19.002,-8.262c-1.268,-0.551 -2.72,-0.551 -3.985,0l-19.004,8.262c-1.824,0.794 -3.004,2.593 -3.004,4.583v25.758c0,1.99 1.18,3.789 3.005,4.583l18.202,7.914c0.888,0.386 1.841,0.579 2.793,0.579c0.952,0 1.905,-0.193 2.792,-0.579l18.204,-7.914c1.824,-0.794 3.004,-2.593 3.004,-4.583v-25.758c0,-1.99 -1.18,-3.789 -3.005,-4.583zM30.806,8.201c0.379,-0.165 0.787,-0.248 1.194,-0.248c0.407,0 0.815,0.083 1.195,0.248l19.002,8.262c0.093,0.041 0.179,0.091 0.267,0.14l-19.27,8.377c-0.758,0.33 -1.63,0.33 -2.39,0l-19.269,-8.377c0.087,-0.049 0.173,-0.1 0.266,-0.14zM11.803,47.719c-1.096,-0.477 -1.803,-1.556 -1.803,-2.749v-25.758c0,-0.354 0.069,-0.695 0.185,-1.016l19.822,8.618c0.321,0.14 0.654,0.242 0.993,0.311v24.875v3.944c-0.34,-0.069 -0.673,-0.172 -0.995,-0.312zM54,44.97c0,1.193 -0.707,2.272 -1.802,2.749l-18.203,7.914h-0.001c-0.321,0.14 -0.655,0.242 -0.994,0.312v-3.945v-24.875c0.339,-0.069 0.671,-0.171 0.992,-0.311l19.823,-8.619c0.116,0.322 0.185,0.663 0.185,1.017z" fill="url(#color-2)"></path></g></g></svg>